<?xml version="1.0" encoding="UTF-8"?>
<svg id="Camada_2" data-name="Camada 2" xmlns="http://www.w3.org/2000/svg" viewBox="0 0 205.95 123.9">
  <g id="Camada_1-2" data-name="Camada 1">
    <g>
      <g>
        <g>
          <path d="M.73,98.8c-.63,4.02.53,7.56,3.21,10.65.9,1.04,1.91,1.89,3.01,2.59,1.25.78,2.62,1.36,4.12,1.78.36.1.76.19,1.17.26,2.04.35,4.58.39,6.28.2.13-.01.25-.03.36-.04,1.78-.24,3.5-.64,5.18-1.27,1.45-.54,2.78-1.3,4.08-2.14.2-.13.4-.27.59-.41,0,0,.01,0,.02-.01.73-.55,1.36-1.17,1.9-1.85,1.19-1.49,2.01-3.24,2.73-5.05.34-.87.68-1.74.99-2.62.08-.24.12-.46.12-.7v-.06s-.04,0-.07,0c-1.29-.25-2.61-.3-3.87-.69-4.56-1.42-7.62-4.25-8.65-9.05-.37-1.71-.4-3.43,0-5.09l-.13-.03c-1.13-.14-2.26-.08-3.39,0-1.79.13-3.57.33-5.33.76-.62.15-1.22.33-1.8.53-2.68.94-5.01,2.46-6.96,4.6-1.98,2.16-3.14,4.8-3.58,7.66Z" fill="#904280"/>
          <path d="M.98,114.62c-.74.74-.61,1.58.35,2.08.84.43,1.75.3,2.63.26.84-.04,1.62.07,2.43.28,1.1.29,2.23.53,3.38.29,1.47-.31,2.54-1.25,2.15-3.04-.01-.07,0-.14,0-.21l.34-.2c-.42-.07-.81-.16-1.17-.26-1.49-.41-2.87-.99-4.12-1.78l-.23.1c-.59.95-1.49,1.36-2.56,1.53-.74.11-1.48.26-2.21.42-.35.08-.7.25-.98.53Z" fill="#c4af4b"/>
          <path d="M9.49,72.53c-.09,3.2.15,6.38.7,9.53.25,1.45.46,2.91,1.02,4.29l.06.18c.58-.2,1.19-.38,1.8-.53,1.75-.42,3.53-.63,5.33-.76,1.13-.08,2.26-.14,3.39,0l.13.03c.01-.06.03-.11.04-.16.64-2.43,1.98-4.51,3.99-6.07.37-.29.66-.87,1.3-.71l.1.09c.1-.12.22-.23.34-.34,2.88-2.47,6.16-3.84,10.07-3.29,2.28.32,4.22,1.31,5.78,2.93,1.11,1.15,1.94,2.54,2.51,4.06l.06.12c1.5-.67,2.98-1.38,4.44-2.12l.03.07.04-.04c.54-1.01.84-2.12,1.5-3.09,1.54-2.26,3.66-3.63,6.31-3.96,2.26-.29,4.32.46,5.78,2.26,1.89,2.32,3.23,4.92,3.69,7.93.38,2.44.19,4.77-.82,7.06-.74,1.7-1.75,3.14-3.35,4.05-2.4,1.37-4.88,1.29-7.31.07-.75-.37-1.38-.87-1.93-1.46l-.22.05c-.12-.01-.2.07-.35.06-1.24-.16-2.48-.26-3.73-.22-1.23.04-2.45.11-3.67.16v.25c-.52,1.44-1.57,2.48-2.69,3.46-.46.4-.93.79-1.46,1.1-.09.05-.23.18-.34,0l-.07-.03c-.1.28-.26.5-.49.63-1.44.8-2.97,1.36-4.62,1.55-.57.07-1.14,0-1.7.12-.03,0-.06.02-.09.03-.19.08-.34.26-.56.26v.06c0,.24-.05.46-.13.7-.31.88-.65,1.75-.99,2.62-.72,1.82-1.54,3.57-2.73,5.05l.08.07c.74.35,1.43.79,2.15,1.17.25.13.51.26.78.37,1.92.8,3.84,1.57,5.81,2.2.78.25,1.56.48,2.36.69,2.42.63,4.87,1.13,7.35,1.4.32.04.63.07.95.09,2.32.19,4.65.17,6.98.16,2.11,0,4.21-.19,6.29-.45,2.13-.27,4.25-.65,6.34-1.16.24-.06.48-.12.72-.18,3.43-.9,6.75-2.05,9.83-3.86.49-.29.93-.75,1.58-.71l.08.04c.17-.39.53-.62.88-.87.58-.41,1.16-.82,1.72-1.26,4.3-3.35,8.35-6.98,12.24-10.78,3.84-3.76,7.61-7.59,11.42-11.39.33-.32.64-.65.9-1.04l.05-.14s-.01,0-.02,0c-1.49-.61-2.99-1.34-4.39-2.2-4.52-2.79-8.03-6.5-10.52-11.2-1.31-2.47-2.28-5.07-3-7.76-.63-2.34-1.04-4.75-1.11-7.18-.08-2.63-.11-5.26.37-7.88.32-1.74.72-3.47,1.35-5.09,0,0,0,0,0-.02l-.09-.04c-1.53-1.09-3.04-2.22-4.63-3.22-3.38-2.12-6.92-3.9-10.65-5.32-3.84-1.46-7.78-2.59-11.82-3.31-2.74-.49-5.5-.85-8.3-.83-1.57.01-3.13-.03-4.7.1-1.67.13-3.34.3-4.97.61-3.93.74-7.74,1.96-11.33,3.73-3.21,1.58-6.21,3.53-9,5.78-4.24,3.41-7.72,7.49-10.57,12.1-1.41,2.3-2.62,4.7-3.55,7.24-.91,2.48-1.64,4.99-2.08,7.61-.37,2.16-.6,4.32-.66,6.5Z" fill="#ac73a6"/>
          <path d="M38.93,114.59c-1.94-.11-3.88-.05-5.81.06-.67.04-1.33.08-2,.13-2.78.2-5.55.45-8.3.96-.87.16-1.76.23-2.6.49h0c-.32.1-.62.23-.92.4-.46.26-1.09.4-1.03,1.11.06.74.78.83,1.24.86,1.27.09,2.16.74,2.98,1.62,1.28,1.39,2.99,1.84,4.77,1.77,1.73-.07,3.46-.27,5.19-.51,1.82-.25,3.57-.1,5.12,1.08.84.64,1.85.85,2.89.84,2.41-.02,4.75-.4,6.98-1.32,2.95-1.21,3.5-3.22,2.62-5.8-.2-.59-.63-1.09-.89-1.66l.02-.18c-2.48-.27-4.93-.77-7.35-1.4-.79-.21-1.58-.44-2.36-.69l-.06.19c-.14.65-.33,1.29-.48,1.94v.1Z" fill="#beba48"/>
          <path d="M20.18,116.09l.05.14h0c.84-.26,1.74-.33,2.6-.49,2.74-.51,5.52-.75,8.3-.96.67-.05,1.33-.09,2-.13v-.06c.18-1.33-.84-2.29-1.9-3.27-.63-.59-1.59-.49-2.35-.77l-.11-.14s-.01,0-.02.01c-.19.14-.38.28-.59.41-1.3.84-2.63,1.6-4.08,2.14-1.68.62-3.4,1.03-5.18,1.27-.12.02-.24.03-.36.04l.02.14c.17.52.48.91.96,1.18.23.14.54.2.67.48Z" fill="#c4af4b"/>
          <path d="M21.93,85.28c-.41,1.66-.37,3.38,0,5.09,1.03,4.81,4.1,7.63,8.65,9.05,1.26.39,2.59.44,3.87.69.03,0,.05,0,.07,0,.22,0,.37-.18.56-.26v-.02c-.04-.29-.23-.38-.49-.42-.84-.11-1.63-.37-2.43-.68-3.05-1.19-5.28-3.29-6.61-6.24-1.86-4.12-1.62-8.21.61-12.15.37-.65.72-1.36,1.2-1.92l-.1-.09c-.64-.16-.93.42-1.3.71-2.01,1.56-3.35,3.64-3.99,6.07-.01.05-.03.11-.04.16Z" fill="#e5d490"/>
          <path d="M41.98,97.53l.07.03c.11.17.25.05.34,0,.52-.31,1-.7,1.46-1.1,1.12-.98,2.16-2.02,2.7-3.46v-.25c-.76.03-1.52.05-2.28.05-2,0-3.98-.09-5.95-.48-2.73-.54-3.08-2.47-2.73-4.43.1-.58.42-1.16,1-1.54,1.09-.7,2.18-1.34,3.36-1.88l-.31-.05c-.39-.31-.91-.28-1.33-.59-.52-.38-.77-.84-.96-1.41-.17-.5.07-.88.44-1.01.36-.13.64-.33.96-.51.42-.23.82-.23,1.17.19.66.79,1.03,1.62.55,2.63-.05.1-.11.22-.07.34l.07.16c.22-.09.45-.19.68-.27,1.68-.63,3.34-1.32,4.98-2.06l-.06-.12c-.57-1.52-1.4-2.91-2.51-4.06-1.57-1.62-3.51-2.61-5.78-2.93-3.91-.55-7.19.82-10.07,3.29-.12.1-.23.22-.34.34-.48.55-.83,1.26-1.2,1.92-2.23,3.95-2.46,8.03-.61,12.15,1.33,2.96,3.56,5.05,6.61,6.24.79.31,1.59.57,2.43.68.26.04.45.13.48.42v.02s.07-.02.1-.03c.56-.13,1.13-.05,1.7-.12,1.66-.19,3.18-.75,4.62-1.55.24-.13.39-.35.49-.63ZM30.79,85.38c-.56-.63-.38-1.4-.2-2.13.04-.19.17-.38.27-.55.42-.67.66-.71,1.79-.35h.07c1.01-.48,1.54-.19,1.61,1.04.06,1.1-.53,2.05-1.82,2.46-.59.19-1.27.03-1.71-.47Z" fill="#c4af4b"/>
          <path d="M30.59,83.25c-.17.73-.36,1.5.2,2.13.44.5,1.13.65,1.71.47,1.29-.41,1.88-1.37,1.82-2.46-.07-1.23-.6-1.52-1.61-1.04h-.07c-1.13-.36-1.37-.32-1.79.35-.11.17-.23.36-.27.55Z" fill="#fff"/>
          <path d="M35.58,87.88c-.35,1.96,0,3.89,2.73,4.43,1.97.39,3.95.47,5.95.48.76,0,1.52-.02,2.27-.05,1.22-.05,2.45-.12,3.67-.16,1.25-.04,2.49.07,3.73.22.15.02.23-.07.35-.06l.22-.05c-.43-.46-.8-.98-1.14-1.56-1.36-2.34-2.23-4.85-2.72-7.48-.2-1.08-.17-2.21,0-3.31.03-.2-.01-.33-.06-.49l-.03-.07c-1.46.74-2.94,1.45-4.44,2.12-1.64.74-3.3,1.43-4.98,2.06-.23.08-.46.18-.68.27-.18.07-.35.15-.52.23-1.17.54-2.27,1.18-3.36,1.88-.58.38-.9.95-1,1.54Z" fill="#e2d178"/>
          <path d="M37.78,81.41c-.37.12-.6.5-.44,1.01.19.57.44,1.02.96,1.41.42.32.95.28,1.33.59l.31.05c.17-.08.35-.16.52-.23l-.07-.16c-.03-.13.02-.24.07-.34.48-1.02.11-1.84-.55-2.63-.35-.43-.76-.42-1.17-.19-.32.18-.6.38-.96.51Z" fill="#fff"/>
          <path d="M50.62,79.82l-.04.04c.04.16.08.29.06.49-.16,1.1-.2,2.23,0,3.31.49,2.63,1.36,5.14,2.72,7.48.33.58.71,1.1,1.14,1.56.55.59,1.19,1.08,1.93,1.46,2.43,1.22,4.91,1.3,7.31-.07,1.6-.92,2.6-2.36,3.35-4.05,1-2.29,1.19-4.62.82-7.06-.46-3.01-1.81-5.62-3.69-7.93-1.46-1.8-3.53-2.55-5.78-2.26-2.66.33-4.77,1.7-6.31,3.96-.66.97-.96,2.08-1.5,3.09ZM53.12,84.9c-.36-1.45-.61-2.93-.28-4.42.57-2.59,1.75-4.69,4.49-5.54.6-.19,1.19-.19,1.8-.2h.07c2.27.33,3.76,1.79,4.89,3.61,1.37,2.22,2.05,4.7,2.01,7.31-.03,1.96-.54,3.8-1.78,5.39-1.74,2.25-4.86,2.54-7.12.82-2.31-1.75-3.39-4.26-4.07-6.98Z" fill="#e5d490"/>
          <path d="M52.84,80.48c-.33,1.49-.08,2.97.28,4.42.68,2.71,1.76,5.22,4.07,6.98,2.26,1.72,5.38,1.43,7.12-.82,1.23-1.59,1.75-3.43,1.78-5.39.04-2.62-.64-5.1-2.01-7.31-1.12-1.81-2.62-3.27-4.89-3.61h-.07c-.61,0-1.2,0-1.8.2-2.74.85-3.92,2.96-4.49,5.54Z" fill="#7b6831"/>
          <path d="M81.75,109.08c.07-.09.11-.19.11-.26,0-.17.04-.32.1-.45l-.08-.04c-.65-.05-1.09.42-1.58.71-3.07,1.81-6.39,2.96-9.83,3.86-.24.06-.48.12-.72.18l.02.08c.15.33,0,.71.2,1.04.47.76,1.23,1.02,2.01,1.24,2.1.58,4.28.6,6.43.83,2.03.21,4.06.35,6.09.54,1.78.17,3.55.46,5.32.7.94.13,1.57-.35,1.87-1.31.23-.74.71-1.27,1.52-1.3.62-.02,1.25.13,1.87.17.92.05,1.86.13,2.77-.25,1.28-.53,1.97-1.55,2.4-2.78.2-.57.51-.99.99-1.3.33-.22.66-.42.9-.76.45-.63.36-1.02-.35-1.32-.62-.26-1.28-.36-1.94-.4-1.7-.12-3.41-.1-5.12-.02-3.62.17-7.24.4-10.85.75-.68.07-1.38.23-2.07.08h-.06Z" fill="#beba48"/>
          <path d="M90.5,46.68c-.48,2.62-.45,5.25-.37,7.88.07,2.43.48,4.84,1.11,7.18.72,2.68,1.69,5.28,3,7.76,2.49,4.7,6,8.41,10.52,11.2,1.4.86,2.9,1.58,4.39,2.2,0,0,.01,0,.02,0,1.14.47,2.42.78,3.68,1.06,1.83.39,3.68.67,5.53.64,1.47-.02,2.96.07,4.43-.17.21-.03.28-.19.41-.29l.14-.07-.14-.07c-.19-.2-.42-.27-.69-.28-2.63-.09-5.12-.78-7.54-1.79-4.65-1.93-8.67-4.74-11.96-8.57-2.61-3.04-4.56-6.44-5.89-10.23-1.1-3.12-1.7-6.31-1.96-9.61-.21-2.8-.02-5.57.48-8.29.6-3.22,1.75-6.29,3.43-9.13,2.13-3.62,4.96-6.61,8.36-9.06.79-.57,1.69-.96,2.37-1.7l-.23-.02c-.57-.24-1,.16-1.45.35-2.93,1.29-5.84,2.65-8.36,4.64-2.42,1.92-4.23,4.4-5.83,7.03-.82,1.35-1.54,2.78-2.11,4.23,0,0,0,0,0,.02-.63,1.62-1.03,3.35-1.35,5.09Z" fill="#e5d490"/>
          <path d="M126.01,34.75h0c.52-.04,1.01.27,1.41.49,1.79,1,3.25,2.3,3.78,4.45.55,2.24-.83,4.56-3.27,4.62-1.64.04-2.93-.77-3.94-2.05-.74-.93-1.29-1.95-1.59-3.11-.09-.35-.11-.67.03-.97l-.15-.07c.18-.76.61-1.37,1.12-1.93.66-.71,1.45-1.28,2.61-1.43ZM113.56,38.67c.26.03.51.08.75.16.63.2,1.2.53,1.74.92,1.02.74,1.88,1.7,2.2,3.26l-.06.04c.06.09.09.2.1.31.31,2.63-1.14,6.25-3.86,6.94-1.74.44-3.62-.3-4.58-1.82-.99-1.57-1.09-3.25-.67-4.98.48-1.99,1.47-3.65,3.37-4.65.38-.2.67-.22.97-.03l.02-.16ZM95.67,45.24c-.51,2.72-.7,5.49-.48,8.29.25,3.3.86,6.49,1.96,9.61,1.33,3.78,3.27,7.19,5.89,10.23,3.29,3.83,7.31,6.64,11.96,8.57,2.42,1.01,4.91,1.7,7.54,1.79.27,0,.51.07.69.28l.14.07c1.66-.09,3.3-.34,4.9-.72,3.94-.93,7.55-2.63,10.79-5.09,1.82-1.38,3.2-3.21,4.82-4.79.22-.22.4-.58.3-.95-.02-.07-.04-.14-.08-.21-.09-.18-.07-.37-.07-.55-.05-2.67-.71-5.2-1.66-7.67l-.06-.2c-.14.05-.28.09-.42.13-2.23.71-4.47,1.38-6.78,1.79-2.53.46-5.05.64-7.54-.21-2.5-.86-4.47-2.39-5.81-4.7-1.17-2.01-1.73-4.18-1.5-6.49.2-2.04,1.13-3.78,2.55-5.25,1.53-1.59,3.45-2.62,5.39-3.59,2.01-1,4-2.06,5.94-3.19,3.06-1.79,6.01-3.73,8.78-5.94.28-.22.56-.45.83-.67l-.07-.09c-1.2-1.44-2.36-2.92-3.72-4.22-3.46-3.32-7.45-5.76-11.98-7.3-1.35-.46-2.79-.66-4.21-.86-1.5-.22-2.99-.32-4.5-.25-2.69.11-5.3.62-7.81,1.58-.56.21-1.24.29-1.64.71-.69.74-1.59,1.13-2.37,1.7-3.4,2.45-6.23,5.44-8.36,9.06-1.67,2.84-2.83,5.91-3.43,9.13Z" fill="#c4af4b"/>
          <path d="M113.54,38.83c-.3-.2-.59-.18-.97.03-1.9,1-2.88,2.66-3.37,4.65-.42,1.73-.31,3.41.67,4.98.95,1.52,2.84,2.27,4.58,1.82,2.71-.69,4.17-4.31,3.86-6.94-.01-.11-.05-.22-.1-.31-.09-.16-.24-.29-.43-.39-.57-.31-1.18-.44-1.8-.55-.28-.05-.63-.03-.75-.34-.38-.94-.83-1.86-.91-2.9v-.04c-.23-.08-.48-.13-.74-.16l-.02.16Z" fill="#fff"/>
          <path d="M114.31,38.84v.04c.06,1.04.51,1.96.89,2.9.13.32.48.3.75.34.62.11,1.23.24,1.8.55.19.1.34.23.43.39l.06-.04c-.32-1.56-1.18-2.51-2.2-3.26-.54-.39-1.11-.73-1.74-.92Z" fill="#fff"/>
          <path d="M120.27,54.43c-.22,2.31.34,4.48,1.5,6.49,1.34,2.3,3.31,3.84,5.81,4.7,2.48.85,5.01.67,7.54.21,2.31-.41,4.55-1.09,6.78-1.79.14-.04.28-.09.42-.13,2.23-.72,4.45-1.48,6.71-2.13.34-.1.69-.2,1.03-.29,3.03-.82,6.08-1.6,9.19-2.1,2.62-.42,5.24-.75,7.88-.81.37,0,.78.1,1.1-.02.15-.06.29-.08.42-.08v-.1c-.18-.46-.63-.61-.97-.89-3.21-2.67-5.6-5.98-7.61-9.61-1.57-2.83-2.81-5.78-3.79-8.85-.71-2.24-1.23-4.52-1.61-6.84-.33-2.02-.43-4.05-.55-6.08-.01-.23-.02-.46-.01-.68h-.19c-.5.27-.68.83-1.02,1.25-2.73,3.36-5.79,6.39-9.13,9.13-.28.23-.55.45-.83.67-2.77,2.21-5.73,4.15-8.78,5.94-1.94,1.13-3.92,2.19-5.94,3.19-1.94.97-3.86,2-5.39,3.59-1.42,1.47-2.35,3.22-2.55,5.25Z" fill="#e2d178"/>
          <path d="M122.42,38.18c-.14.3-.12.63-.03.97.3,1.16.85,2.18,1.59,3.11,1.01,1.28,2.3,2.09,3.94,2.05,2.44-.06,3.82-2.38,3.27-4.62-.53-2.15-1.99-3.45-3.78-4.45-.4-.22-.9-.53-1.41-.49h0c-1.16.15-1.96.72-2.61,1.43-.51.55-.94,1.16-1.12,1.93l.15.07Z" fill="#fff"/>
          <path d="M142.31,63.9l.06.2c.95,2.47,1.61,5.01,1.66,7.67,0,.19-.03.38.07.55.04.07.06.14.08.21h.06c.4-.11.56-.47.76-.77,1.55-2.29,2.66-4.81,3.57-7.4.26-.76.61-1.55.51-2.41l-.06-.19c-2.25.65-4.47,1.42-6.71,2.13Z" fill="#907527"/>
          <path d="M154.11,25.4c0,.23,0,.46.01.68.12,2.03.22,4.06.55,6.08.38,2.32.9,4.6,1.61,6.84.98,3.07,2.22,6.03,3.79,8.85,2.01,3.62,4.4,6.94,7.61,9.61.33.28.79.44.97.89v.1c.31,0,.57.14.83.32,2.55,1.79,5.35,3.01,8.37,3.72,3.56.84,7.13.91,10.72.08,4.51-1.05,8.29-3.31,11.26-6.85,2.02-2.41,3.36-5.17,4.26-8.21.78-2.64,1.18-5.31,1.32-8.03.13-2.58,0-5.17-.37-7.74-.33-2.32-.82-4.6-1.48-6.84-1.08-3.64-2.58-7.1-4.64-10.29-3.46-5.38-7.92-9.67-13.88-12.25-2.5-1.08-5.11-1.67-7.82-1.85-1.31-.08-2.63.05-3.94.24-3.01.44-5.8,1.45-8.36,3.07-4.91,3.11-7.94,7.62-9.53,13.13-.49,1.71-.91,3.45-.99,5.25-.05,1.06-.25,2.12-.28,3.19ZM157.97,30.58c-.21-1.61-.39-3.22-.37-4.84.05-4.14.68-8.19,2.49-11.95,2-4.15,5.01-7.36,9.32-9.19,1.8-.76,3.69-1.18,5.66-1.18.58,0,1.15,0,1.73,0h.07c.72.25,1.48.24,2.22.39,2.03.4,3.92,1.14,5.73,2.11,2.78,1.48,5.22,3.41,7.32,5.74,2.74,3.03,4.98,6.39,6.67,10.14,1.09,2.42,2.01,4.89,2.61,7.47.27,1.17.48,2.34.7,3.52.38,2.11.42,4.23.41,6.36-.01,1.61-.29,3.2-.59,4.76-.34,1.79-.93,3.52-1.68,5.2-1.05,2.34-2.47,4.41-4.3,6.21-2.48,2.45-5.48,3.95-8.86,4.59-1.43.27-2.91.37-4.42.22-2.28-.22-4.43-.78-6.49-1.71-2.3-1.03-4.34-2.46-6.23-4.13-2.41-2.12-4.34-4.61-6.02-7.33-1.92-3.14-3.44-6.46-4.55-9.96-.66-2.1-1.13-4.23-1.41-6.42Z" fill="#e5d490"/>
          <path d="M157.6,25.74c-.02,1.62.17,3.23.37,4.84.28,2.19.75,4.33,1.41,6.42,1.11,3.5,2.63,6.82,4.55,9.96,1.67,2.72,3.6,5.21,6.02,7.33,1.9,1.66,3.94,3.09,6.23,4.13,2.06.93,4.21,1.49,6.49,1.71,1.51.15,2.99.05,4.42-.22,3.38-.64,6.38-2.14,8.86-4.59,1.82-1.8,3.25-3.87,4.3-6.21.75-1.68,1.34-3.41,1.68-5.2.3-1.56.58-3.15.59-4.76.02-2.13-.03-4.25-.41-6.36-.21-1.18-.42-2.36-.7-3.52-.61-2.59-1.52-5.05-2.61-7.47-1.69-3.75-3.93-7.11-6.67-10.14-2.1-2.33-4.55-4.26-7.32-5.74-1.81-.97-3.7-1.7-5.73-2.11-.74-.15-1.5-.14-2.22-.39h-.07c-.58,0-1.15,0-1.73,0-1.97,0-3.87.42-5.66,1.18-4.31,1.83-7.32,5.05-9.32,9.19-1.81,3.76-2.45,7.81-2.49,11.95Z" fill="#7b6831"/>
        </g>
        <g>
          <line x1="176.87" y1="3.41" x2="176.8" y2="3.41" fill="none" stroke="#000" stroke-linecap="round" stroke-linejoin="round"/>
          <line x1="168.64" y1="58.46" x2="168.65" y2="58.36" fill="none" stroke="#000" stroke-linecap="round" stroke-linejoin="round"/>
          <line x1="59.2" y1="74.74" x2="59.13" y2="74.74" fill="none" stroke="#000" stroke-linecap="round" stroke-linejoin="round"/>
          <line x1="35.08" y1="99.86" x2="35.07" y2="99.83" fill="none" stroke="#000" stroke-linecap="round" stroke-linejoin="round"/>
          <line x1="39.63" y1="84.42" x2="39.94" y2="84.47" fill="none" stroke="#000" stroke-linecap="round" stroke-linejoin="round"/>
          <line x1="40.46" y1="84.24" x2="40.39" y2="84.08" fill="none" stroke="#000" stroke-linecap="round" stroke-linejoin="round"/>
          <line x1="32.72" y1="82.35" x2="32.65" y2="82.35" fill="none" stroke="#000" stroke-linecap="round" stroke-linejoin="round"/>
          <line x1="46.54" y1="92.75" x2="46.54" y2="92.99" fill="none" stroke="#000" stroke-linecap="round" stroke-linejoin="round"/>
          <line x1="50.59" y1="79.86" x2="50.62" y2="79.82" fill="none" stroke="#000" stroke-linecap="round" stroke-linejoin="round"/>
          <line x1="46.06" y1="81.79" x2="46.12" y2="81.91" fill="none" stroke="#000" stroke-linecap="round" stroke-linejoin="round"/>
          <line x1="42.05" y1="97.55" x2="41.98" y2="97.53" fill="none" stroke="#000" stroke-linecap="round" stroke-linejoin="round"/>
          <path d="M168.65,58.36c-.18-.46-.64-.61-.97-.89-3.21-2.67-5.6-5.98-7.61-9.61-1.57-2.83-2.81-5.78-3.79-8.85-.71-2.24-1.23-4.52-1.61-6.84-.33-2.02-.43-4.05-.55-6.08-.01-.23-.02-.46-.01-.68.03-1.07.24-2.12.28-3.19.08-1.8.49-3.54.99-5.25,1.6-5.51,4.62-10.02,9.53-13.13,2.56-1.62,5.35-2.62,8.36-3.07,1.32-.19,2.63-.33,3.94-.24,2.7.18,5.32.77,7.82,1.85,5.96,2.58,10.42,6.87,13.88,12.25,2.06,3.19,3.56,6.66,4.64,10.29.66,2.24,1.15,4.52,1.48,6.84.37,2.58.51,5.16.37,7.74-.14,2.72-.54,5.39-1.32,8.03-.9,3.04-2.23,5.8-4.26,8.21-2.98,3.54-6.76,5.8-11.26,6.85-3.58.84-7.15.76-10.72-.08-3.02-.71-5.82-1.93-8.37-3.72-.25-.18-.52-.32-.83-.32-.13,0-.27.03-.42.08-.32.12-.73.02-1.1.02-2.65.06-5.27.39-7.88.81-3.11.5-6.16,1.28-9.19,2.1-.34.09-.69.19-1.03.29-2.25.65-4.47,1.42-6.71,2.13-.14.05-.28.09-.42.13-2.23.71-4.47,1.38-6.78,1.79-2.53.46-5.05.64-7.54-.21-2.5-.86-4.47-2.39-5.81-4.7-1.17-2.01-1.73-4.18-1.5-6.49.2-2.04,1.13-3.78,2.55-5.25,1.53-1.59,3.45-2.62,5.39-3.59,2.01-1,4-2.06,5.94-3.19,3.06-1.79,6.01-3.73,8.78-5.94.28-.22.56-.45.83-.67,3.34-2.74,6.4-5.77,9.13-9.13.34-.42.52-.97,1.02-1.25" fill="none" stroke="#000" stroke-linecap="round" stroke-linejoin="round"/>
          <path d="M11.21,86.36c-.57-1.37-.77-2.84-1.02-4.29-.55-3.15-.8-6.33-.7-9.53.06-2.19.3-4.34.66-6.5.44-2.61,1.17-5.12,2.08-7.61.94-2.54,2.14-4.95,3.55-7.24,2.85-4.62,6.33-8.69,10.57-12.1,2.8-2.25,5.79-4.2,9-5.78,3.59-1.77,7.4-2.99,11.33-3.73,1.64-.31,3.3-.48,4.97-.61,1.57-.12,3.14-.08,4.7-.1,2.79-.02,5.56.34,8.3.83,4.05.73,7.98,1.85,11.82,3.31,3.73,1.42,7.27,3.2,10.65,5.32,1.59,1,3.1,2.12,4.63,3.22" fill="none" stroke="#000" stroke-linecap="round" stroke-linejoin="round"/>
          <path d="M143.69,35.69c-1.2-1.44-2.36-2.92-3.72-4.22-3.46-3.32-7.45-5.76-11.98-7.3-1.35-.46-2.79-.66-4.21-.86-1.5-.22-2.99-.32-4.5-.25-2.69.11-5.3.62-7.81,1.58-.56.21-1.24.29-1.64.71-.69.74-1.59,1.13-2.37,1.7-3.4,2.45-6.23,5.44-8.36,9.06-1.67,2.84-2.83,5.91-3.43,9.13-.51,2.72-.7,5.49-.48,8.29.25,3.3.86,6.49,1.96,9.61,1.33,3.78,3.27,7.19,5.89,10.23,3.29,3.83,7.31,6.64,11.96,8.57,2.42,1.01,4.91,1.7,7.54,1.79.27,0,.51.07.69.28" fill="none" stroke="#000" stroke-linecap="round" stroke-linejoin="round"/>
          <path d="M81.81,109.1c.7.15,1.39-.02,2.07-.08,3.61-.35,7.23-.59,10.85-.75,1.71-.08,3.41-.09,5.12.02.65.05,1.32.14,1.94.4.71.3.8.69.35,1.32-.24.34-.57.54-.9.76-.48.31-.79.73-.99,1.3-.43,1.22-1.12,2.25-2.4,2.78-.9.37-1.84.3-2.77.25-.62-.03-1.25-.19-1.87-.17-.81.02-1.29.56-1.52,1.3-.3.96-.93,1.44-1.87,1.31-1.77-.25-3.54-.53-5.32-.7-2.03-.2-4.06-.33-6.09-.54-2.15-.22-4.33-.25-6.43-.83-.78-.22-1.54-.48-2.01-1.24-.2-.33-.05-.71-.2-1.04" fill="none" stroke="#000" stroke-linecap="round" stroke-linejoin="round"/>
          <path d="M109.6,25.33c-.57-.24-1,.16-1.45.35-2.93,1.29-5.84,2.65-8.36,4.64-2.42,1.92-4.23,4.4-5.83,7.03-.82,1.35-1.54,2.78-2.11,4.23,0,0,0,0,0,.02-.63,1.62-1.03,3.35-1.35,5.09-.48,2.62-.45,5.25-.37,7.88.07,2.43.48,4.84,1.11,7.18.72,2.68,1.69,5.28,3,7.76,2.49,4.7,6,8.41,10.52,11.2,1.4.86,2.9,1.58,4.39,2.2,0,0,.01,0,.02,0,1.14.47,2.42.78,3.68,1.06,1.83.39,3.68.67,5.53.64,1.47-.02,2.96.07,4.43-.17.21-.03.28-.19.41-.29" fill="none" stroke="#000" stroke-linecap="round" stroke-linejoin="round"/>
          <path d="M54.51,92.7c-.43-.46-.8-.98-1.14-1.56-1.36-2.34-2.23-4.85-2.72-7.48-.2-1.08-.17-2.21,0-3.31.03-.2-.01-.33-.06-.49" fill="none" stroke="#000" stroke-linecap="round" stroke-linejoin="round"/>
          <path d="M49.17,114.63c.26.57.69,1.07.89,1.66.88,2.58.33,4.59-2.62,5.8-2.23.91-4.58,1.29-6.98,1.32-1.04,0-2.06-.2-2.89-.84-1.55-1.18-3.3-1.33-5.12-1.08-1.73.23-3.46.44-5.19.51-1.78.07-3.49-.37-4.77-1.77-.81-.88-1.7-1.53-2.98-1.62-.46-.03-1.18-.12-1.24-.86-.06-.71.57-.84,1.03-1.11.3-.17.61-.3.92-.4h0c.84-.26,1.74-.33,2.6-.49,2.74-.51,5.52-.75,8.3-.96.67-.05,1.33-.09,2-.13,1.93-.11,3.87-.17,5.81-.06.21,0,.42.02.63.04,1.07.08,2.11.33,3.18.41" fill="none" stroke="#000" stroke-linecap="round" stroke-linejoin="round"/>
          <path d="M21.79,85.25c-1.13-.14-2.26-.08-3.39,0-1.79.13-3.57.33-5.33.76-.62.15-1.22.33-1.8.53-2.68.94-5.01,2.46-6.96,4.6-1.98,2.16-3.14,4.8-3.58,7.66-.63,4.02.53,7.56,3.21,10.65.9,1.04,1.91,1.89,3.01,2.59,1.25.78,2.62,1.36,4.12,1.78.36.1.76.19,1.17.26,2.04.35,4.58.39,6.28.2.13-.01.25-.03.36-.04,1.78-.24,3.5-.64,5.18-1.27,1.45-.54,2.78-1.3,4.08-2.14.2-.13.4-.27.59-.41,0,0,.01,0,.02-.01.73-.55,1.36-1.17,1.9-1.85,1.19-1.49,2.01-3.24,2.73-5.05.34-.87.68-1.74.99-2.62.08-.24.12-.46.12-.7" fill="none" stroke="#000" stroke-linecap="round" stroke-linejoin="round"/>
          <path d="M109.12,83.04c-.25.38-.57.71-.9,1.04-3.8,3.8-7.57,7.64-11.42,11.39-3.89,3.8-7.94,7.43-12.24,10.78-.56.43-1.14.85-1.72,1.26-.35.25-.72.48-.88.87-.06.13-.09.28-.1.45,0,.07-.05.17-.11.26-.02.03-.05.06-.07.09-1.06,1.09-2.23,2.01-3.67,2.55" fill="none" stroke="#000" stroke-linecap="round" stroke-linejoin="round"/>
          <path d="M27.36,78.43c-.48.55-.83,1.26-1.2,1.92-2.23,3.95-2.46,8.03-.61,12.15,1.33,2.96,3.56,5.05,6.61,6.24.79.31,1.59.57,2.43.68.26.04.45.13.48.42" fill="none" stroke="#000" stroke-linecap="round" stroke-linejoin="round"/>
          <path d="M142.37,64.1c.95,2.47,1.61,5.01,1.66,7.67,0,.19-.03.38.07.55.04.07.06.14.08.21.09.37-.08.73-.3.95-1.62,1.58-3,3.41-4.82,4.79-3.24,2.46-6.85,4.16-10.79,5.09-1.6.38-3.25.62-4.9.72" fill="none" stroke="#000" stroke-linecap="round" stroke-linejoin="round"/>
          <path d="M125.3,35.07c.24-.2.47-.3.71-.32.52-.04,1.01.26,1.41.49,1.79,1,3.25,2.3,3.78,4.45.55,2.24-.83,4.56-3.27,4.62-1.64.04-2.93-.77-3.94-2.05-.74-.93-1.29-1.95-1.59-3.11-.09-.35-.11-.67.03-.97.04-.09.1-.18.18-.27" fill="none" stroke="#000" stroke-linecap="round" stroke-linejoin="round"/>
          <path d="M6.72,112.14c-.59.95-1.49,1.36-2.56,1.53-.74.11-1.48.26-2.21.42-.35.08-.7.25-.98.53-.74.74-.61,1.58.35,2.08.84.43,1.75.3,2.63.26.84-.04,1.62.07,2.43.28,1.1.29,2.23.53,3.38.29,1.47-.31,2.54-1.25,2.15-3.04-.01-.07,0-.14,0-.21" fill="none" stroke="#000" stroke-linecap="round" stroke-linejoin="round"/>
          <path d="M81.88,108.34c-.65-.05-1.09.42-1.58.71-3.07,1.81-6.39,2.96-9.83,3.86-.24.06-.48.12-.72.18-2.09.52-4.21.9-6.34,1.16-2.08.26-4.18.44-6.29.45-2.33,0-4.66.03-6.98-.16-.32-.03-.64-.06-.95-.09-2.48-.27-4.93-.77-7.35-1.4-.79-.21-1.58-.44-2.36-.69-1.97-.63-3.9-1.4-5.81-2.2-.27-.11-.52-.24-.78-.37-.73-.38-1.41-.83-2.15-1.17" fill="none" stroke="#000" stroke-linecap="round" stroke-linejoin="round"/>
          <path d="M27.25,78.34c-.64-.16-.93.42-1.3.71-2.01,1.56-3.35,3.64-3.99,6.07-.01.05-.03.11-.04.16-.41,1.66-.37,3.38,0,5.09,1.03,4.81,4.1,7.63,8.65,9.05,1.26.39,2.59.44,3.87.69.03,0,.05,0,.07,0,.22,0,.37-.18.56-.26.03-.01.06-.02.09-.03.56-.13,1.13-.05,1.7-.12,1.66-.19,3.18-.75,4.62-1.55.24-.13.39-.35.49-.63.04-.1.07-.2.09-.31.25-1.11.3-2.21.18-3.32" fill="none" stroke="#000" stroke-linecap="round" stroke-linejoin="round"/>
          <path d="M50.56,79.79c-1.46.74-2.94,1.45-4.44,2.12-1.64.74-3.3,1.43-4.98,2.06-.23.08-.46.18-.68.27-.18.07-.35.15-.52.23-1.17.54-2.27,1.18-3.36,1.88-.58.38-.9.95-1,1.54-.35,1.96,0,3.89,2.73,4.43,1.97.39,3.95.47,5.95.48.76,0,1.52-.02,2.27-.05,1.22-.05,2.45-.12,3.67-.16,1.25-.04,2.49.07,3.73.22.15.02.23-.07.35-.06" fill="none" stroke="#000" stroke-linecap="round" stroke-linejoin="round"/>
          <path d="M114.3,38.87c.07,1.04.52,1.96.91,2.9.13.32.48.3.75.34.62.11,1.23.24,1.8.55.19.1.34.23.43.39.06.09.09.2.1.31.31,2.63-1.14,6.25-3.86,6.94-1.74.44-3.62-.3-4.58-1.82-.99-1.57-1.09-3.25-.67-4.98.48-1.99,1.47-3.65,3.37-4.65.38-.2.67-.22.97-.03.05.03.09.07.14.11" fill="none" stroke="#000" stroke-linecap="round" stroke-linejoin="round"/>
          <path d="M149.08,61.96c.1.86-.25,1.65-.51,2.41-.9,2.6-2.01,5.11-3.57,7.4-.2.3-.35.66-.76.76" fill="none" stroke="#000" stroke-linecap="round" stroke-linejoin="round"/>
          <path d="M114.09,30.37c-1.1-.19-1.93.42-2.69,1.05-2.53,2.08-4.19,4.77-5.19,7.87" fill="none" stroke="#000" stroke-linecap="round" stroke-linejoin="round"/>
          <path d="M120.66,29.13c1.19-.3,2.39-.27,3.59-.13,1.62.19,3.16.61,4.43,1.72" fill="none" stroke="#000" stroke-linecap="round" stroke-linejoin="round"/>
          <path d="M29.47,80.48c.55-.96,1.18-1.85,2.22-2.34.29-.14.6-.36.96-.15" fill="none" stroke="#000" stroke-linecap="round" stroke-linejoin="round"/>
          <path d="M28.87,110.55c.76.28,1.72.18,2.35.77,1.06.98,2.08,1.94,1.9,3.27" fill="none" stroke="#000" stroke-linecap="round" stroke-linejoin="round"/>
          <path d="M36.87,76.92c.79-.08,1.4.33,2,.74.31.21.6.46.84.75" fill="none" stroke="#000" stroke-linecap="round" stroke-linejoin="round"/>
          <path d="M18.54,114.42c.17.52.48.91.96,1.18.23.14.54.2.67.48l.02.06" fill="none" stroke="#000" stroke-linecap="round" stroke-linejoin="round"/>
          <path d="M39.42,112.55c-.14.65-.33,1.29-.48,1.94" fill="none" stroke="#000" stroke-linecap="round" stroke-linejoin="round"/>
          <path d="M122.27,38.11c.18-.76.61-1.37,1.12-1.93.66-.71,1.45-1.28,2.61-1.43.06,0,.12-.02.18-.02" fill="none" stroke="#000" stroke-linecap="round" stroke-linejoin="round"/>
          <path d="M113.5,38.67s.04,0,.06,0c.26.03.51.08.75.16.63.2,1.2.53,1.74.92,1.02.74,1.88,1.7,2.2,3.26" fill="none" stroke="#000" stroke-linecap="round" stroke-linejoin="round"/>
        </g>
      </g>
      <path d="M124.31,37.5c.07.09.13.19.18.3l-.25-.6c.07.17.11.34.13.52l-.09-.66c.04.35.06.72.01,1.07l.09-.66c-.03.17-.07.33-.13.49l.25-.6c-.04.1-.1.18-.16.27l.39-.51c-.09.11-.19.21-.3.3l.51-.39c-.2.15-.42.27-.65.38l.6-.25c-.21.09-.42.15-.64.18l.66-.09c-.15.02-.29.02-.44,0l.66.09c-.11-.02-.21-.05-.32-.09l.6.25c-.1-.04-.19-.1-.28-.16l.51.39c-.07-.06-.13-.12-.19-.19l.39.51c-.06-.08-.1-.16-.14-.25l.25.6c-.03-.08-.05-.15-.06-.24l.09.66c-.02-.12-.02-.25,0-.37l-.09.66c.02-.17.07-.32.13-.48l-.25.6c.09-.2.2-.38.33-.55l-.39.51c.3-.39.63-.78,1.01-1.09l-.51.39c.14-.11.28-.19.44-.26l-.6.25c.12-.05.24-.08.37-.1l-.66.09c.09,0,.17,0,.25,0l-.66-.09s.06,0,.09.02l-.6-.25.04.03-.9-.9.02.04-.25-.6s.02.06.02.09l-.09-.66c.06.53.2,1.11.13,1.64l.09-.66c-.02.1-.05.2-.08.3l.25-.6c-.06.13-.13.25-.22.36l.39-.51c-.13.16-.27.3-.43.42l.51-.39c-.14.1-.28.19-.43.26l.6-.25c-.1.04-.2.06-.3.08l.66-.09c-.07,0-.14,0-.21,0l.66.09c-.07-.01-.13-.03-.2-.05l.6.25c-.06-.03-.12-.06-.18-.1l.51.39s-.07-.07-.11-.11l.39.51s-.06-.09-.08-.14l.25.6c-.02-.06-.03-.11-.04-.17l.09.66c0-.06,0-.12,0-.18l-.09.66c.02-.13.06-.24.1-.36l-.25.6c.14-.31.34-.6.55-.88l-.39.51c.13-.17.28-.33.44-.46l-.51.39c.08-.06.17-.12.26-.16l-.6.25s.07-.02.11-.03l-.66.09s.08,0,.11,0l-.66-.09h.05c-.2-.07-.4-.16-.6-.24.03.01.06.03.09.05l-.51-.39s.04.04.06.06l-.39-.51s.03.05.04.07l-.25-.6s.03.08.04.13l-.09-.66c0,.08,0,.16,0,.24l.09-.66c-.02.1-.05.19-.08.29l.25-.6c-.08.19-.18.36-.3.52l.39-.51c-.12.16-.26.3-.42.43l.51-.39c-.08.06-.16.11-.25.15l.6-.25c-.06.02-.11.03-.17.04l.66-.09s-.07,0-.1,0l.66.09s-.07-.02-.1-.03l.6.25s-.06-.03-.09-.05l.51.39-.04-.04.39.51s-.04-.06-.05-.09l.25.6v-.06c.02.22.05.44.07.66,0-.04,0-.08,0-.12l-.09.66.02-.06-.25.6c.03-.06.05-.11.09-.16l-.39.51c.29-.38.7-.7,1.07-.99l-.51.39s.06-.05.09-.07l-.6.25.04-.02-.66.09h.04c-.42-.11-.84-.22-1.26-.34l.03.02-.9-.9.02.03-.34-1.26s0,.05,0,.08l.09-.66v.04c.07-.2.16-.4.24-.6-.12.28-.31.55-.49.79l.39-.51c-.18.23-.38.45-.6.64-.46.41-.73,1.16-.73,1.77s.27,1.35.73,1.77,1.1.76,1.77.73l.66-.09c.42-.12.79-.33,1.1-.64.53-.47.99-1.06,1.35-1.68.15-.26.31-.59.39-.86.19-.68.11-1.43-.24-2.05-.7-1.22-2.47-1.73-3.65-.86-.74.54-1.58,1.19-2.04,2-.62,1.1-.48,2.5.41,3.41.72.73,1.83,1.03,2.81.76s1.91-1.11,2.43-2.02c.61-1.06.81-2.38.17-3.48-.52-.88-1.48-1.41-2.5-1.39-.89.02-1.66.45-2.29,1.04-.31.29-.56.65-.81,1-.16.23-.31.47-.43.72s-.28.59-.35.9c-.13.61-.13.97-.01,1.57.16.82.73,1.52,1.42,1.95,1.08.68,2.51.59,3.59-.06.94-.57,1.67-1.43,2.03-2.47.26-.75.15-1.5.06-2.26-.04-.33-.05-.69-.13-1-.18-.67-.62-1.26-1.22-1.61-.73-.42-1.68-.46-2.48-.23-.89.26-1.64.82-2.25,1.5-.3.34-.58.69-.85,1.05s-.45.77-.61,1.21c-.37,1-.26,2.32.35,3.21.36.51.58.73,1.09,1.09.26.19.58.3.88.42.42.16.9.22,1.35.19,1.2-.08,2.32-.57,3.21-1.38s1.24-1.99,1.25-3.14c0-.49-.06-.99-.15-1.47s-.26-.93-.54-1.3c-.16-.29-.37-.53-.64-.7-.24-.22-.52-.37-.85-.45-.33-.1-.66-.12-1-.04-.33.02-.64.11-.93.3-.53.34-1,.86-1.15,1.49l-.09.66c0,.45.12.87.34,1.26h0Z"/>
      <path d="M113.3,42.55c.09,0,.17.01.26.02l-.66-.09c.22.04.44.1.65.19l-.6-.25c.5.22.94.54,1.37.86l-.51-.39c.17.13.33.27.46.44l-.39-.51c.04.06.08.13.12.2l-.25-.6c.03.07.05.14.06.22l-.09-.66c0,.08,0,.15,0,.23l.09-.66c-.02.1-.04.2-.08.29l.25-.6c-.05.1-.1.18-.17.27l.39-.51c-.07.08-.14.15-.23.22l.51-.39c-.14.1-.28.18-.44.25l.6-.25c-.42.17-.87.25-1.31.32l.66-.09c-.35.04-.7.06-1.05.02l.66.09c-.25-.03-.49-.09-.72-.18l.6.25c-.19-.08-.36-.18-.53-.3l.51.39c-.12-.09-.22-.19-.32-.31l.39.51c-.1-.12-.17-.25-.23-.39l.25.6c-.03-.09-.05-.17-.07-.26l.09.66c0-.06,0-.12,0-.18l-.09.66c.01-.08.03-.15.07-.23l-.25.6c.04-.07.07-.13.12-.19l-.39.51c.34-.41.83-.73,1.24-1.06l-.51.39c.14-.1.28-.2.44-.27l-.6.25c.08-.03.16-.05.25-.06l-.66.09c.09,0,.17,0,.25,0l-.66-.09c.14.02.28.06.41.11l-.6-.25c.26.11.49.27.71.43l-.51-.39c.21.17.4.35.57.57l-.39-.51c.11.15.2.31.28.48l-.25-.6c.02.06.04.11.06.17l-.09-.66c.01.06.01.12,0,.18l.09-.66-.03.08.25-.6c-.03.05-.06.1-.09.15l.39-.51c-.07.08-.14.15-.21.21l.51-.39c-.15.11-.3.2-.46.27l.6-.25c-.4.17-.83.29-1.27.35l.66-.09c-.19.02-.37.03-.56,0l.66.09c-.13-.02-.26-.05-.38-.1l.6.25c-.12-.05-.23-.11-.33-.19l.51.39c-.06-.05-.11-.1-.16-.16l.39.51s-.06-.08-.08-.13l.25.6s-.04-.09-.04-.14l.09.66v-.08c-.03.22-.06.44-.09.66.02-.08.04-.15.07-.23l-.25.6c.09-.2.2-.39.33-.56l-.39.51c.14-.17.29-.33.47-.46l-.51.39c.18-.13.37-.25.57-.34l-.6.25c.21-.09.43-.15.65-.19l-.66.09c.06,0,.11,0,.17,0l-.66-.09c.05,0,.11.02.15.05l-.6-.25.06.04-.51-.39.05.05-.39-.51c.09.12.15.26.21.4l-.25-.6c.06.14.1.27.13.42l-.09-.66c0,.09,0,.17,0,.26l.09-.66c0,.05-.02.1-.04.15l.25-.6c-.03.06-.06.11-.1.17l.39-.51c-.05.05-.09.1-.14.14l.51-.39c-.11.09-.24.16-.37.22l.6-.25c-.34.14-.71.22-1.08.28l.66-.09c-.16.02-.31.04-.47.03l.66.09s-.08-.01-.12-.03l.6.25s-.07-.03-.1-.06l.51.39-.04-.04.39.51-.03-.06.25.6v-.06c.02.22.05.44.08.66v-.06c-.02.22-.05.44-.08.66l.02-.06-.25.6s.04-.09.07-.13l-.39.51c.07-.08.14-.15.22-.21l-.51.39c.25-.19.52-.35.81-.47l-.6.25c.32-.13.65-.23.99-.28l-.66.09c.07,0,.13,0,.2,0l-.66-.09.06.02-.6-.25.05.03-.51-.39.04.04-.39-.51.03.06-.34-1.26v.06c.03-.22.06-.44.09-.66l-.02.06.25-.6-.03.06.39-.51s-.06.07-.1.1l.51-.39c-.11.08-.23.14-.36.19l.6-.25c-.25.1-.51.17-.78.2l.66-.09c-.18.02-.36.02-.54.02-.62-.03-1.33.3-1.77.73s-.76,1.15-.73,1.77c.06,1.4,1.1,2.44,2.5,2.5,1.21.05,2.69-.33,3.54-1.25,1-1.07,1.06-2.75-.02-3.81-.86-.84-1.99-.88-3.08-.62-.98.23-2.03.76-2.74,1.49-.89.91-1.17,2.34-.5,3.47.54.9,1.58,1.43,2.62,1.37,1.25-.07,2.54-.4,3.48-1.25.64-.58.96-1.38,1.02-2.23.05-.76-.23-1.5-.57-2.16-.47-.92-1.49-1.54-2.53-1.54-.76,0-1.4.22-2.08.53-.87.4-1.61,1.13-2.1,1.94-.45.75-.74,1.7-.49,2.56s.8,1.54,1.56,2.02c1.14.72,2.58.64,3.82.28,1.31-.38,2.63-1.17,3.04-2.56s-.34-2.9-1.4-3.8c-.39-.33-.81-.67-1.27-.89-.86-.42-1.71-.59-2.67-.4-.74.15-1.28.57-1.86,1.03-.3.24-.61.48-.9.73-1.27,1.09-1.53,2.94-.67,4.37.61,1.01,1.63,1.73,2.76,2.04s2.46.21,3.63-.09c1.44-.37,2.77-1.36,3.14-2.86.13-.53.15-1.17,0-1.71-.18-.6-.42-.97-.81-1.44-.34-.41-.8-.71-1.23-1.02-.97-.7-2.05-1.16-3.27-1.21-.62-.03-1.33.3-1.77.73s-.76,1.15-.73,1.77c.06,1.4,1.1,2.44,2.5,2.5h0Z"/>
      <path d="M39.83,79.76s-.06-.04-.09-.06c-.16-.08-.35-.17-.54-.22s-.39-.07-.58-.08c-.03,0-.07,0-.1,0-.5.05-.66.08-1.12.31-.15.08-.41.3-.45.34-.03.03-.06.05-.08.08-.31.38-.35.43-.52.9,0,.02-.01.03-.02.05,0,.01,0,.02,0,.03l-.07.5s0,.04,0,.06l.07.5s0,.02,0,.03c.1.38.27.6.52.89.21.25.65.5.96.57.38.08.7.11,1.08-.01.08-.03.16-.07.24-.1.08-.03.16-.07.24-.1.02-.01.05-.02.07-.03l-.45.19c.09-.04.18-.06.26-.09.18-.07.38-.14.55-.24s.32-.22.46-.35c.27-.25.5-.64.59-.99s.1-.71,0-1.06c-.1-.33-.25-.6-.49-.84-.2-.2-.57-.44-.85-.49l-.5-.07c-.26,0-.5.04-.72.16-.16.04-.3.12-.41.24-.2.13-.37.31-.48.53l-.19.45-.07.5c0,.26.04.5.16.72.08.23.2.43.39.6h0c-.1-.11-.2-.24-.29-.37,0,.01.01.02.02.04l-.19-.45s0,.03.01.04l-.07-.5s0,.04,0,.06l.07-.5s-.01.06-.02.09l.19-.45c-.02.05-.06.1-.09.15l.29-.38c-.06.08-.13.16-.22.22l.38-.29c-.05.04-.1.07-.16.09l.45-.19s-.1.03-.15.04l.5-.07c-.05,0-.1,0-.15,0l.5.07s-.07-.02-.11-.03l.45.19s-.05-.02-.07-.04l.38.29s-.02-.02-.04-.04l.29.38s-.01-.02-.02-.03l.19.45s0-.03-.01-.05l.07.5c0-.08-.02-.16-.01-.24l-.07.5v-.02c-.06.15-.12.3-.18.45,0,0,0-.02.02-.02l-.29.38s.04-.04.06-.05l-.38.29c.1-.08.2-.14.32-.19l-.45.19c.12-.05.24-.08.37-.1l-.5.07c.06,0,.13-.01.19-.01.26,0,.5-.04.72-.16.23-.08.43-.2.6-.39.18-.17.31-.37.39-.6.12-.22.17-.46.16-.72l-.07-.5c-.09-.32-.25-.59-.48-.83l-.38-.29c-.29-.17-.61-.25-.95-.26-.05,0-.11,0-.16,0-.19.02-.37.05-.56.08-.03,0-.06.01-.09.02-.05.01-.1.03-.15.04-.02,0-.04.02-.07.02-.17.07-.35.14-.52.22-.1.05-.19.1-.28.17-.35.26-.52.36-.75.75-.19.32-.28.71-.26,1.08.01.22.03.43.08.65.04.18.12.35.21.5l.29.38h.01s.02.03.03.04l.38.29c.17.11.37.19.57.25.1.03.22.04.31.05.1.01.22.04.33.04.21,0,.43-.03.63-.09.02,0,.04-.01.06-.02.15-.05.32-.13.46-.2.02,0,.03-.01.05-.02.03-.01.05-.03.07-.04.15-.1.28-.21.42-.32.05-.04.09-.07.13-.12.14-.15.27-.34.39-.5s.21-.41.27-.58c0-.02.02-.05.02-.07h0c.02-.18.04-.35.07-.51,0-.01,0-.03,0-.04h0c-.02-.18-.04-.35-.07-.51,0-.01,0-.03-.01-.04-.12-.41-.25-.55-.51-.88l-1.82,3.13h.01c-.15-.06-.3-.12-.45-.19h0c-.13-.09-.25-.19-.38-.29h0c-.1-.12-.2-.25-.29-.37h0c-.06-.14-.13-.29-.19-.44,0,0,0,.01,0,.02l-.07-.5s0,.02,0,.04l.07-.5s-.01.04-.02.06l.19-.45s-.02.04-.04.07l.29-.38s-.05.05-.08.08l.38-.29s-.09.06-.14.08l.45-.19c-.06.03-.13.05-.19.07-.21.07-.42.17-.62.26l.45-.19s-.03.01-.05.02l.5-.07s-.03,0-.04,0l.5.07s-.03,0-.04-.01l.45.19s-.03-.02-.05-.03l.38.29s-.03-.03-.04-.04l.29.38s-.02-.03-.03-.05l.19.45s0-.03-.01-.04l.07.5s0-.04,0-.06l-.07.5s.01-.05.02-.08l-.19.45s.03-.05.04-.07l-.29.38s.05-.06.08-.08l-.38.29s.07-.04.11-.06l-.45.19s.08-.03.12-.03l-.5.07c.05,0,.1,0,.15,0l-.5-.07s.08.02.12.03l-.45-.19s.07.04.11.06c.22.14.45.21.7.22.25.06.5.04.75-.03.24-.06.46-.17.64-.34.2-.13.37-.31.48-.53l.19-.45c.09-.33.09-.66,0-1l-.19-.45c-.17-.28-.39-.51-.67-.67h0Z"/>
      <path d="M31.25,82s-.04.07-.06.1l.29-.38s-.07.08-.12.12l.38-.29c-.05.04-.11.07-.17.1l.45-.19c-.07.03-.15.05-.22.06l.5-.07c-.05,0-.11,0-.16,0l.5.07s-.05-.01-.08-.02l.45.19s-.04-.02-.06-.04l.38.29s-.03-.02-.04-.04l.29.38s-.02-.03-.03-.05l.19.45s-.01-.03-.01-.05l.07.5s0-.03,0-.04l-.07.5s0-.03.01-.05l-.19.45s.02-.03.03-.05l-.29.38s.04-.04.06-.06l-.38.29s.08-.05.12-.07l-.45.19c.08-.03.17-.05.26-.07l-.5.07c.08-.01.17-.02.25-.01l-.5-.07s.04,0,.06.02l-.45-.19s.02,0,.02.01l-.38-.29s.01.01.02.02l-.29-.38s0,.01.01.02l-.19-.45s0,.02,0,.02l-.07-.5s0,.02,0,.02l.07-.5s0,.02,0,.02l.19-.45h0c.1-.12.2-.24.29-.37h-.01c.13-.09.25-.18.38-.28-.06.05-.15.08-.22.11l.45-.19c-.08.03-.16.06-.24.07l.5-.07s-.09,0-.14,0l.5.07s-.06-.01-.08-.02l.45.19s-.03-.02-.05-.03l.38.29s-.03-.02-.04-.04l.29.38s-.02-.03-.02-.04l.19.45s0-.03-.01-.05l.07.5s0-.03,0-.05l-.07.5s0-.03.01-.04l-.19.45s.01-.02.02-.03l-.29.38s.01-.01.02-.02l-.38.29s.02-.02.04-.02l-.45.19c.06-.02.12-.04.19-.06s.12-.04.19-.05l-.5.07s.08,0,.12,0l-.5-.07s.08.02.12.03l-.45-.19s.07.03.1.06l-.38-.29s.06.05.09.09l-.29-.38s.04.05.05.08c.12.22.28.39.48.53.18.17.39.28.64.34.25.08.5.09.75.03.25-.01.48-.09.7-.22l.38-.29c.23-.23.39-.51.48-.83l.07-.5c0-.34-.09-.65-.26-.95,0-.02-.02-.03-.03-.05,0,0-.01-.02-.02-.02-.08-.12-.21-.28-.3-.39-.03-.03-.06-.06-.09-.09-.12-.09-.27-.22-.39-.3,0,0-.02-.01-.02-.02-.02,0-.03-.02-.05-.03-.16-.08-.32-.15-.49-.2-.02,0-.04-.01-.06-.02-.19-.04-.4-.08-.6-.08-.1,0-.22.03-.31.04-.1.01-.21.02-.32.05-.09.02-.19.05-.28.08-.08.03-.18.07-.25.1,0,0-.18.06-.25.11s-.2.15-.21.16c-.12.09-.14.1-.2.16-.23.22-.44.59-.51.89h0c-.02.18-.04.34-.07.51,0,0,0,.02,0,.02,0,.18.03.36.07.53,0,0,0,.02,0,.02h0c.06.16.13.31.19.46.07.15.29.39.32.42.01.01.03.03.04.04l.19.15c.06.06.13.11.2.15,0,0,.02,0,.02.01.37.19.44.2.79.25.11.02.24.05.36.04.18-.02.37-.04.55-.07.03,0,.05,0,.07-.02.04-.01.09-.03.13-.04.19-.08.39-.15.57-.25.04-.02.08-.04.11-.06l.19-.15c.07-.04.14-.1.2-.16l.15-.19c.06-.06.11-.13.15-.2l.09-.22c.03-.08.07-.16.1-.24.05-.16.08-.34.07-.52,0-.09-.02-.19-.03-.27-.02-.17-.01-.18-.04-.27,0-.02-.18-.43-.19-.45,0,0,0-.01-.01-.02l-.29-.38h0s0-.02,0-.02l-.38-.29c-.15-.1-.33-.17-.5-.21,0,0-.02,0-.03,0l-.25-.03c-.09-.02-.18-.03-.26-.03-.02,0-.04,0-.06,0-.05,0-.1,0-.14.01-.18.02-.37.05-.55.07-.02,0-.04,0-.07.01-.05,0-.09.02-.14.04-.39.15-.73.29-1.02.6,0,0-.01.01-.02.02l-.15.19c-.05.07-.11.13-.15.2-.09.14-.2.45-.21.48,0,.02-.01.03-.01.05l-.03.25c-.02.09-.03.17-.03.26,0,.09.02.19.03.28.04.3.07.5.25.78.05.07.13.17.16.21s.1.15.16.21c.12.13.27.23.42.33.17.11.37.2.57.23.14.03.43.09.63.07s.42-.04.62-.09c.04,0,.08-.02.12-.04.15-.06.31-.13.46-.19.01,0,.03-.01.04-.02.02,0,.04-.02.06-.03.17-.1.33-.24.48-.36.03-.03.06-.06.09-.09.1-.12.21-.27.3-.39,0-.01.02-.02.02-.03.01-.02.02-.04.04-.06.14-.22.21-.45.22-.7.06-.25.04-.5-.03-.75-.06-.24-.17-.46-.34-.64-.13-.2-.31-.37-.53-.48l-.45-.19c-.33-.09-.66-.09-1,0l-.45.19c-.28.17-.51.39-.67.67h0Z"/>
    </g>
  </g>
</svg>