<?xml version="1.0" encoding="UTF-8"?>
<svg id="Camada_2" xmlns="http://www.w3.org/2000/svg" version="1.1" viewBox="0 0 260.1 119.4">
  <!-- Generator: Adobe Illustrator 30.2.1, SVG Export Plug-In . SVG Version: 2.1.1 Build 1)  -->
  <defs>
    <style>
      .st0 {
        fill: #efa60c;
      }

      .st1 {
        fill: #100804;
      }

      .st2 {
        fill: #27123b;
      }

      .st3 {
        fill: #f4c156;
      }
    </style>
  </defs>
  <path class="st0" d="M0,74v-.5c1.2-1.1,3,.5,7.2.2l5-.3c.3,0,.7,0,.8.2s.3.6.1.9c-1.5,3.2.7,7.2,0,11.3-.2,1.3-.2,2.3.1,3.6.9,2.9,1.3,5.9,1.4,9,.9,0,.9-.5,1.2-1.1,2-4.1,3.4-8.3,3.9-12.8,0-.6.6-1,.9-1,1.4-.2,1.9,2.6,2.1,3.8.5,2.9,1.1,5.6,1.9,8.4l2.2,8.8c0,.3.3.6.5.7.2,0,.5-.2.7-.4l3.2-7.3c1.1-2.4,1.9-4.8,2.5-7.4,1.1-5.3,2.1-10.4,2.8-15.7.5-3.8-2.7-3-2.7-4.5s.3-.7.7-.8c2.1-.8,4-.2,5.9.7,3.5,1.7,7.2,1.4,10.4-.8.3,1,0,2.1-.7,2.8-.9.7-2,1.1-3.1,1.3-4.2.8-3.8,4.7-4.6,7.4-.6,2.2,1.2,2.2.2,4.1-1.6,3.1-3,6.2-3.3,9.7-.2,1.8-.5,3.4-1.8,4.7-.6,2.7-1.7,5.1-3,7.5-3.4,6.5-1.8,7.6-6.3,12.8-.3.4-1,.2-1.3,0s-.4-.6-.5-1.1c-1-5.5-3-12.6-5.9-17.4-1,.2-1.6,1.1-1.8,2l-3,10.2c-.4,1.5-1.1,4.5-2.4,4.1-1.2-.4-2.9-11.8-3.4-13.8l-2.7-12.4c-.6-2.7-.9-5.3-1.1-8-.2-2.9-1.6-5.8-4-7.4-.9-.6-1.8-.8-2.4-1.5H0h0Z"/>
  <path class="st0" d="M37,0c3.2,1.4,6.7,1.9,10.3,1.8,1.9,0,3.7.2,5.3.9,0,1.5-3.4.9-2.7,3.5l3.3,14,4.5,19.4c.5,2.2,1.7,3.8,3.7,4.8,3.4,1.8,5.5-.7,5.5,1.6s-4.3,1.1-5.7.7c-4.1-1-8.3-.9-12.3.3-.4,0-.8,0-.9-.3-.6-2,4.1-.9,3.4-4.2l-2.2-9.8c-.8-3.7-6.4-4.4-9.2-3.8-1.3.3-2.1,1.5-2.6,2.7-2.4,5.7-4.5,13-10.2,16.4-2.8,1.6-6.4,1.4-9-.2-1.4-.8-2.1-2.2-1.7-3.7s1.8-2.4,3.2-2.5c1.2,0,2.1.8,1.9,2-.8.3-1.7,0-2.5.3-.6.3-.6,1.1-.4,1.5.5.9,3.8.8,5.5-.9s2.7-3.3,3.6-5.2c1.2-2.5,2.2-5,3.2-7.6.8-2.1-3.9-.3-5.6-3.1-.6-1.1.1-2.5.8-3.3.2,1,.7,2.2,1.8,2,1.7-.2,3.4-.9,5-1.5.8-.3,1.4-1,1.6-1.8l2.3-8.5c.8-3.1,1.6-6.1,2-9.3.5-4-3.7-4-3.6-5.4C35.3,0,36.2.4,36.5,0h.5Z"/>
  <path class="st0" d="M228.2,104.1c.6,3.3,3.3,6,2.5,7.2-.2.4-.8.8-1.5.8-1.1,0-2-.8-2.6-1.6-2.2-2.9-6.7-5.4-9.5-9.9-.9-1.4-1.7-3-3.3-3.8-.5,3.2-.6,6.3,0,9.4.5,2.4,3.5,2.9,3.6,4.1,0,.4-.4,1-.9,1-3-.4-5.9,0-8.8.5-.4,0-.9,0-1-.4-.7-1.3,1.5-.8,2.3-3.2,2.1-6.2.5-11.6.7-17.4.1-3.6-2.5-2.7-2.1-4.4.3-1.3,5.7-1.1,7.2,1.2,3.2,4.5,4.6,8.4,8.9,12.3.5-3.4.2-6.8-1.1-10-1.7-4-4.5-2.6-4.3-4.3.1-1.4,2.2-.4,3.7-.4,8.6-.5,9.1-5,12.6-3.2,1.5.7,1.2,3.4,3.4,3,4.4-.8,7.1-2.4,11.4-1,3.9,1.2,7.2,4.1,8.7,8,.7,1.8,1.1,3.4,1.9,5.1.5.9.3,2.1-.3,3l-4.2,5.6c-2.2,3-4.9,2.2-7.3,4.4-.5.4-1.2.8-2,.6-2.1-.7-4.1-.7-6.2-.7-3.8,0-3.3,1.7-4.3,1.3-.2,0-.5-.4-.4-.7.2-1.1,1.2-1.8,2.3-2,1.6-.3,2.8-1.5,2.8-3.2v-5.6c0-2.1-.6-3.9-.9-5.9s.9-5.8-2.7-6.8c-.9-.2-1.7-.8-2.2-1.6l-1.2-2.3-4.3,3.4c-.9.7-1.3,1.7-1.4,2.8-.1,4.9,0,9.8.8,14.7h-.3Z"/>
  <path class="st0" d="M175.3,105.7c-.4,2.8,4.6,4.2,6.9,3,.4-.2,1.2-.7,1.4-.2.4.6-.3,1.6-.9,1.9-4.4,2.4-8.7,1.4-13.3.3-1.7-.4-3.4-.2-4.9.4-3.5,1.5-6.7-.4-8.1-3.8-1.2-2.9-2.4-5.5-2.6-8.6-.2-.6-1.2-.5-1.6-.4-.5.2-1,.7-1,1.5v4.3c-.1,2.9,3,1.6,3.1,3,0,.4-.3.9-.9.9-5.5-.3-12.1,3.2-12.9,1.2s2.9-.3,4.4-4.5c1.9-5.2,1.4-10,.9-15.5-.2-2.5-2.6-2.2-2.7-3.2,0-.3.1-.8.5-.8,4.6-.9,9.3-1.5,14.1-1,1.3,0,2.5.8,3.6,1.4.8.3,1,1.4.9,2.1-1.8,9.8-5.4,7.5-4.9,10,.2,1.1.5,2.2,1.2,3.1,1.2,1.8,2.1,3.5,3,5.4.7,1.5,2.1,2.3,3.7,2.1,2.3-.3,4,1.2,4.4-.6,1.6-7.1,3.4-13.7,1.4-20.8-.2-.7-.7-1.2-1.5-1.2h-2.3c.4-1.5,2-1.9,3.5-1.6,2.5.6,4.9,1.2,7.5,1.2-1.2,2.7-1.8,5.4-1.9,8.3,0,4.1-.3,8-1,12h0Z"/>
  <path class="st0" d="M75,110.7c-.3,1.2-4.1-.4-9.5,1.1-.3,0-.7-.2-.9-.2s-.5-.6-.3-.8c1.7-1.2,2.7-2.8,3-4.8.8-5.1.4-10.2,0-15.3-.4-3.9-2.2-2.8-1.9-4.4.2-1.1,5.1-1.1,6.5.5,3.7,4.4,5,9,9.5,13.1.3-4.5.2-12.1-4.9-13.4-.4-.2-.7-.5-.6-1,.2-1.4,2.3-.2,4.5-.4,6.6-.6,9-4.5,10.1-3.2.9,1.1-2.1,3.1-2.9,3.7-1.9,1.2-2.7,3.6-2.5,5.8.8,8.6-.7,10.6,3.3,18.2.3.6.5,1.1.2,1.6s-.8.8-1.4.8-1.5-.3-2-.9c-1.7-1.8-3.4-3.5-5.4-5.1-2.4-2-4.2-4.2-5.8-6.9-.6-1.1-1.6-1.9-2.7-2.3v7.8c0,4.7,4.3,4.2,3.9,6.1,0,0-.2,0-.2,0Z"/>
  <path class="st0" d="M126.8,76.3c-4.8-.7-8.7,1-9.5.3-1.2-1,2.8-1.6,3.2-6.6s0-9.6-.3-14.5c-.2-3.3-2.8-2.8-2-4.2.6-.9,5.2-1.2,7.1,1.4,1.7,2.3,3,4.8,4.5,7.2,1.2,1.9,2.8,3.5,4.3,5.2.5-3.3.2-6.5-.9-9.6-1.6-4.5-4.8-3.3-4.6-4.9.2-1.5,3.3.7,8.8-1.3,1.6-.6,3.1-1.2,4.4-2.4.4-.3.9-.2,1.2,0,.4.3.5.9.1,1.4-1.9,2.3-5.1,3-5.2,6-.2,5,0,10,.8,14.9.5,2.9,3.1,5.8,2.6,6.8-.2.4-.6.9-1.3,1-.8,0-1.7-.2-2.3-.9-1.9-2-3.7-3.9-5.8-5.7s-3.6-3.8-5-6-1.4-2.2-2.7-2.8c-.6,3.2-.7,6.6,0,9.8.5,2.2,3.6,2.7,3.5,4,0,.5-.6.8-1.1.8h.2Z"/>
  <path class="st0" d="M106,109.9c-2,1.7-3.4-.6-9.5,0-1.6.2-3.2,1.9-3.3.9-.2-1.2.9-2.1,1.9-2.3,1.8-.3,3.1-1.6,3.1-3.5v-5.5c0-2.1-.6-3.8-.9-5.8-.2-.9.8-5.9-2.6-6.8-2-.6-3.7-2.9-2.8-4.9.3-.7,1.3.3,1.4.7.3.8.7,1.8,1.6,2,1.2.3,2.5,0,3.7-.4,7.2-2.9,15.2.8,17.7,8.2.5,1.4.9,2.7,1.5,4s.4,2.8-.5,3.9l-3.5,4.6c-2.8,3.7-5.2,2.7-7.7,4.8h0Z"/>
  <path class="st0" d="M138.1,104l.6-2.4c.1-.4.6-.4.9-.3,1.4,0,1.5,3.3,0,5.3-2.6,3.6-2.5,3.4-5.4,3.4h-6.5c-2.7,0-5.2-.8-7.8-1.3-.4,0-.7-.4-.7-.7,0-1.2,3.2-.7,2.8-3.7-1-7.5,1.4-9.5,0-15-.3-1-1.5-1.1-2.1-1.8-.6-.6.7-1.4,1.3-1.3,4.5,1.1,7-1,11.3-1.2,1.6,0,2.9-.5,3.8-1.9.5-.7,1.4-1.2,2.2-.8.9.6-1.1,4.6-1.6,5.7-.9,1.9-4.6.7-6.8,1.2-1.9.4-2.9,2.6-2.5,4.3.6,2.6,2.9-1.4,6.7,1,1.2.8,2,1.9,2,3.2s-.4,2.8-1.7,3.4c-.4.2-.9,0-1.1-.2-.4-.5.5-1,.4-1.8-.1-1.2-4.3-.6-5.3-.3-2.2.5-1.6,3.4-1.4,5.7.2,2,2.5,0,7.8,1.1,1.3.3,2.6-.3,2.9-1.7h.3,0Z"/>
  <path class="st0" d="M135,33.9c.7-1.4.3-2.6,1.2-2.9,1.3-.4,2,2.8.5,5.2-.8,1.2-1.7,2.4-2.9,3.3-.7.5-1.8.4-2.6.3-2.1-.2-4.1,0-6.2,0s-5.3-.8-7.9-1.2c-.4,0-.7-.3-.8-.6,0-.3,0-.8.6-.9,1.5-.4,2.5-1.8,2.2-3.5-.5-2.5-.4-4.8,0-7.3.3-2.2,0-4.5,0-6.7s-2.5-1.5-2.5-2.7.6-1,1.2-.9c5.4,1.1,7.5-1,11.2-1.1,4.8-.1,4.2-3.4,6.1-2.8.6.2.8.9.6,1.6-.8,2.4-1.5,5.4-3.9,5.4h-4.4c-.9.1-1.8.5-2.2,1.3-.6,1.1-.9,2.5-.4,3.6.2.4,1,.4,1.4.2,2.3-1.1,5.1-.6,6.6,1.6,1.1,1.5.6,3.9-.7,5-.4.4-.9.3-1.2.1-.7-.4.2-1.3,0-1.9-.4-1.2-4.1-.7-5.3-.2-2.5,1-1.9,4-.9,5.9.7,1.3,2.7-.3,7.2.7,1.3.3,2.6-.2,3.2-1.5h-.1Z"/>
  <path class="st0" d="M196.4,107.8c-2.1,3.2-6.5,2.8-9.3.9-1.8-1.2-2.5-3.1-2.5-5.2,0-3,1.4-5.5,4.1-6.7l5.1-2.2c1.3-.6,2.4-1.4,3.3-2.5.8-1,.6-2.4-.5-3.2-1.8-1.3-5-3.1-7-1.6s-.2,2.6-.8,3.5c-.2.3-.6.7-1.1.6-.6,0-1.2-.4-1.4-.8-.4-.6-.5-1.5-.2-2.1,1.9-4.4,7.4-5.9,11.4-3.4,3.3,2.1,5.2,1.6,5.5,3.9.3,2.1-.3,4-.8,6-.6,2.1,0,4.3.3,6.4.5,3.8,2.4,3.1,2.2,4.6,0,.4-.6.7-1.1.7-2,.2-3.4-1.1-4.6-2.8l-2.6,4h0Z"/>
  <path class="st0" d="M108.4,38.5c3,2.1,4.7-2,6.1-1.1s-2.2,4.7-6.3,4.2-5.5.6-7.6-1.4c-3.1-3-5-7.2-3.2-11.5s4.4-7.7,7.8-10.5c1.1-.9,2.1-1.2,3.4-1.2,3.7.2,3.9-3.5,5.4-2.7.4.2.6.8.4,1.3-1.5,3.8-.4,6-1.2,6.4-1.1.5-2-1.8-4.3-1-1.4.5-3,1-4.1,2.1-1.8,1.6-2.2,4.1-2.2,6.4,0,7.9,2.3,6.7,5.8,9.1h0Z"/>
  <path class="st0" d="M114.1,76.5c-4.4,0-6.8-2.3-11.7-1.1-.2,0-.3-.5-.3-.6.3-1,2.6-.6,2.9-3.7.3-3.4.3-6.7.2-10l-.3-7.9c0-2.5-3.3-1.6-3.5-2.6-.3-1.3,2.4-1.4,2.3-1.4l9.3.8c.3,0,.9.5.7.7-1.2,1-3.7.7-3.6,3.4l1.1,18.1c.2,2.6,3,2.5,3.2,3.4,0,.2,0,.9-.5.9,0,0,.2,0,.2,0Z"/>
  <path class="st0" d="M92.8,14.9c.4,0,.6.2.2.5-1.8.8-3.1,1.3-3,3.6l.9,17c.2,3.9,3.2,3.2,3.3,4.5,0,.3-.2.8-.6.8-2.6,0-4.9-.8-7.4-1.4-1.5-.4-4.5.7-4.5,0s2.3-.6,2.8-3.7c1-5.9,0-12.1,0-18.5s-3.8-1.3-3.5-2.8c0-.3.3-.5.7-.6,3.4-1,7.4.5,10.8.7h.3,0Z"/>
  <path class="st0" d="M79.3,40.1c-1.7.6-3.5,1.5-5.4,1.6-3.6,0-6.9-.9-10.4-1.9,4.3-3.4,2.8-7.7,4.4-12.7.5-2,0-10.2-1.1-11.3s-2.6.1-3.1-.7c.3-1.3,1.9-1.5,3.1-1.2,2.6.6,5.1,1.3,7.9,1-1.1,1.8-1.8,3.6-2,5.6l-.7,8.3c0,2.1-.2,4-.5,6-.3,2.1,1.1,3.4,3,3.8,1.7.3,3.2.3,4.8-.6.3,0,.7.7.6.9,0,.3,0,1-.7,1.2h0Z"/>
  <path class="st3" d="M93.1,15.4l-.2-.5c.3,0,.7-.1,1,.1-.3.2-.6.2-.7.4h-.1Z"/>
  <path class="st2" d="M47.9,26.9c-2.7-1.1-5-1.7-7.7-1.9-.6,0-.4-1.2-.3-1.6,1.3-4.2,2.7-8.4,3.8-12.6,1.8,5.7,2.2,10.5,4.1,16.1h.1Z"/>
  <path class="st2" d="M251,103.5c-1.3,1.8-3.7,2.5-5.6,1.3-.5-.3-.5-1.4-.6-2v-14.3c0-.5.3-1.1.5-1.3,1.6-1.7,9.7,2.6,8.5,10.1-.4,2.3-1.4,4.4-2.9,6.3h.1Z"/>
  <path class="st2" d="M155.9,88.6c-.6,2.2-1.6,7.8-4.5,6.2-.1-1.7-.3-3.5,0-5.2.3-1.9,1.8-2.9,3.5-2.6.7.2,1.3.7,1,1.5h0Z"/>
  <path class="st2" d="M108.9,103.6c-1.5,1.9-3.9,2.6-5.8,1-.4-.4-.3-1.5-.3-2.1v-14.1c0-.6.3-1.2.7-1.4.5-.3,1.3-.3,2,0,3.7,1.4,6.2,5.1,6.8,8.9-.5,2.9-1.5,5.5-3.3,7.8h0Z"/>
  <path class="st2" d="M192.8,104.8c-1.3,0-2.2-1.6-2.6-2.7-.2-.7.2-1.2.6-1.5,1-.8,1.7.7,2.9.5,1.4-.2,1.4-4.1,3.4-3.3,2.1.8-1.8,4.8-2.6,5.6-.4.4-.8,1.3-1.5,1.4h-.2,0Z"/>
  <g>
    <path class="st0" d="M63.2,93c0,2.7-.4,5.4-1.3,8s-1.1,2.4-1.9,3.3c-.8.9-1.7,1.7-2.8,2.5-1.6,1.1-2.8,4.7-5.7,3.3l-4.7-2.2c-2.4-1.1-3.8-3.5-3.8-6.1v-4.3c-.2-4.3,1.9-8,5.3-10.6,1.7-1.4,3.6-2.4,5.4-3.7.8-.6,1.7-.4,2.3.2l3.2,3.2h0c1.9,1.8,3.8,3.5,3.8,6.4,0,0,.2,0,.2,0ZM57.4,98.2h0c-.3-4.5,1.1-4.2-2.6-8.7-1.1-1.3-2.6-1.5-3.8-.4-1,.8-2.3,1.7-2.5,3.2-.3,2.9,0,5.8,0,8.8s1.6,4.7,4.1,5.1c2.6-2.3,4.9-4.4,4.7-8h0Z"/>
    <path class="st1" d="M57.5,98.2h0c.2,3.6-2.2,5.7-4.9,8-2.6-.4-4.3-2.6-4.3-5.1s-.3-5.9,0-8.8c.2-1.5,1.6-2.4,2.6-3.2,1.3-1.1,2.8-.9,4,.4,3.9,4.5,2.4,4.2,2.7,8.7h0Z"/>
  </g>
</svg>